<svg width="44" height="44" viewBox="0 0 44 44" fill="none" xmlns="http://www.w3.org/2000/svg">
<path d="M22.1521 4.74858C27.8831 4.74858 28.5629 4.77008 30.8256 4.874C33.1652 4.9815 35.5746 5.51542 37.2793 7.22287C39.0001 8.94646 39.517 11.3365 39.6243 13.6872C39.7281 15.9537 39.7495 16.6345 39.7495 22.375C39.7495 28.1155 39.7281 28.7963 39.6243 31.0628C39.5188 33.3937 38.9732 35.8304 37.2793 37.5271C35.5586 39.2507 33.1742 39.7685 30.8256 39.876C28.5629 39.9799 27.8831 40.0014 22.1521 40.0014C16.421 40.0014 15.7413 39.9799 13.4785 39.876C11.1693 39.7703 8.70444 39.2113 7.02483 37.5271C5.31302 35.8125 4.78713 33.3991 4.67981 31.0628C4.57606 28.7963 4.5546 28.1155 4.5546 22.375C4.5546 16.6345 4.57606 15.9537 4.67981 13.6872C4.78534 11.3652 5.33627 8.91421 7.02483 7.22287C8.742 5.50287 11.1371 4.9815 13.4785 4.874C15.7413 4.77008 16.421 4.74858 22.1521 4.74858ZM22.1521 0.875C16.3226 0.875 15.591 0.900083 13.3015 1.004C9.98338 1.15629 6.68855 2.08079 4.28987 4.48342C1.88225 6.895 0.968208 10.1881 0.816166 13.5098C0.71242 15.8032 0.687378 16.536 0.687378 22.375C0.687378 28.214 0.71242 28.9468 0.816166 31.2402C0.968208 34.5601 1.89477 37.8693 4.28987 40.2666C6.6957 42.6764 9.98874 43.5937 13.3015 43.746C15.591 43.8499 16.3226 43.875 22.1521 43.875C27.9815 43.875 28.7131 43.8499 31.0027 43.746C34.319 43.5937 37.6174 42.6674 40.0143 40.2666C42.4237 37.8532 43.3359 34.5619 43.488 31.2402C43.5917 28.9468 43.6168 28.214 43.6168 22.375C43.6168 16.536 43.5917 15.8032 43.488 13.5098C43.3359 10.1863 42.4112 6.88425 40.0143 4.48342C37.612 2.07721 34.31 1.1545 31.0027 1.004C28.7131 0.900083 27.9815 0.875 22.1521 0.875Z" fill="#A7DB43"/>
<path d="M22.1521 11.335C16.065 11.335 11.1299 16.2782 11.1299 22.3752C11.1299 28.4723 16.065 33.4155 22.1521 33.4155C28.2391 33.4155 33.1742 28.4723 33.1742 22.3752C33.1742 16.2782 28.2391 11.335 22.1521 11.335ZM22.1521 29.5419C18.2008 29.5419 14.9972 26.333 14.9972 22.3752C14.9972 18.4174 18.2008 15.2085 22.1521 15.2085C26.1034 15.2085 29.307 18.4174 29.307 22.3752C29.307 26.333 26.1034 29.5419 22.1521 29.5419Z" fill="#A7DB43"/>
<path d="M33.6106 13.4776C35.0332 13.4776 36.1864 12.3225 36.1864 10.8976C36.1864 9.47273 35.0332 8.31763 33.6106 8.31763C32.1881 8.31763 31.0349 9.47273 31.0349 10.8976C31.0349 12.3225 32.1881 13.4776 33.6106 13.4776Z" fill="#A7DB43"/>
</svg>
