<svg width="48" height="36" viewBox="0 0 48 36" fill="none" xmlns="http://www.w3.org/2000/svg">
<path d="M4.8 36C3.48 36 2.3504 35.5597 1.4112 34.6792C0.472 33.7987 0.0016 32.739 0 31.5V4.5C0 3.2625 0.4704 2.2035 1.4112 1.323C2.352 0.4425 3.4816 0.0015 4.8 0H43.2C44.52 0 45.6504 0.441 46.5912 1.323C47.532 2.205 48.0016 3.264 48 4.5V31.5C48 32.7375 47.5304 33.7972 46.5912 34.6792C45.652 35.5612 44.5216 36.0015 43.2 36H4.8ZM24 20.25L43.2 9V4.5L24 15.75L4.8 4.5V9L24 20.25Z" fill="#A7DB43"/>
</svg>
