<svg width="38" height="38" viewBox="0 0 38 38" fill="none" xmlns="http://www.w3.org/2000/svg">
<g clip-path="url(#clip0_165_74)">
<path d="M20.2703 17.3094H14.0203V11.2687H20.2703C21.3124 11.2687 22.1093 11.4953 22.6609 11.9422C23.2125 12.3891 23.4874 13.1687 23.4874 14.2703C23.4874 15.2516 23.1812 15.9984 22.5687 16.525C21.9546 17.0531 21.189 17.3094 20.2703 17.3094Z" fill="#F5F9FF"/>
<path d="M24.4672 23.4313C24.4672 24.5344 24.1422 25.3922 23.5 25.9922C22.8625 26.5985 21.9547 26.8985 20.7922 26.8985H14.0188V20.0594H20.7907C21.9547 20.0594 22.85 20.3406 23.4985 20.9297C24.1485 21.5188 24.4672 22.3469 24.4672 23.4313Z" fill="#F5F9FF"/>
<path d="M31.25 0H6.25C2.8125 0 0 2.8125 0 6.25V31.25C0 34.6875 2.8125 37.5 6.25 37.5H31.25C34.6875 37.5 37.5 34.6875 37.5 31.25V6.25C37.5 2.8125 34.6875 0 31.25 0ZM27.8375 26.3297C27.5312 27.0766 27.0531 27.7203 26.3969 28.2594C25.7406 28.7984 24.9078 29.2281 23.8844 29.5469C22.8609 29.8656 21.6469 30.025 20.2391 30.025H10.1906V8.15H20.8219C22.7828 8.15 24.3578 8.59688 25.5406 9.49844C26.7234 10.4 27.3172 11.7531 27.3172 13.5734C27.3172 14.6766 27.0484 15.6203 26.5078 16.4047C25.9688 17.1891 25.1969 17.8016 24.1922 18.2313V18.2922C25.5406 18.5797 26.5641 19.2172 27.2563 20.2031C27.9484 21.1953 28.2984 22.4328 28.2984 23.9281C28.2969 24.7859 28.1437 25.5875 27.8375 26.3297Z" fill="#F5F9FF"/>
</g>
<defs>
<clipPath id="clip0_165_74">
<rect width="37.5" height="37.5" fill="white"/>
</clipPath>
</defs>
</svg>
