<svg width="33" height="38" viewBox="0 0 33 38" fill="none" xmlns="http://www.w3.org/2000/svg">
<path d="M16.4798 37.2405L3.23705 33.5566L0.273234 0.25H32.7267L29.7604 33.551L16.4798 37.2405Z" stroke="#F5F9FF" stroke-width="0.5"/>
<path d="M16.5002 14.9877H21.9669L22.3449 10.749H16.5002V6.6095H26.8598L26.7607 7.72L25.7455 19.1268H16.5002V14.9877Z" fill="#F5F9FF"/>
<path d="M16.525 25.7383L16.5069 25.7435L11.9059 24.4984L11.6114 21.197H7.46484L8.04386 27.6965L16.5061 30.0502L16.5254 30.0446L16.525 25.7383Z" fill="#F5F9FF"/>
<path d="M21.6159 18.9518L21.1181 24.4954L16.5105 25.7415V30.0483L24.9798 27.6965L25.0421 26.997L25.761 18.9518H21.6159Z" fill="#F5F9FF"/>
<path d="M16.5147 6.6095V10.7486H6.53571L6.45262 9.81837L6.26456 7.72L6.16553 6.6095H16.5147ZM16.5002 14.9881V19.1276H11.9575L11.8748 18.1973L11.6864 16.0986L11.5873 14.9881H16.5002Z" fill="#F5F9FF"/>
</svg>
