<svg width="128" height="128" viewBox="0 0 128 128" fill="none" xmlns="http://www.w3.org/2000/svg">
<path fill-rule="evenodd" clip-rule="evenodd" d="M96.0975 74.4839C96.0975 74.4839 96.0975 74.4839 96.0975 74.4839Z" fill="#0D1117"/>
<path fill-rule="evenodd" clip-rule="evenodd" d="M98 0H30C13.4315 0 0 13.4315 0 30V98C0 114.569 13.4315 128 30 128H98C114.569 128 128 114.569 128 98V30C128 13.4315 114.569 0 98 0ZM114 91.4685C112.544 92.0198 110.937 92.0187 109.483 91.4654C108.028 90.9122 106.826 89.8452 106.104 88.466C102.925 83.7071 99.5139 79.0989 96.1001 74.4876L96.0993 74.4864C96.099 74.486 96.0987 74.4856 96.0984 74.4852C96.0981 74.4848 96.0978 74.4843 96.0975 74.4839L96.0966 74.4827C94.6454 72.5225 93.1938 70.5617 91.7595 68.5885L89.674 65.8085C88.2728 67.6858 86.8716 69.5448 85.4777 71.3941L85.4715 71.4024L85.4704 71.4038C81.1698 77.1094 76.939 82.7224 72.9935 88.494C72.3127 89.8121 71.176 90.8378 69.7951 91.38C68.4142 91.9222 66.8832 91.9439 65.4875 91.441L86.9775 62.6115L66.9885 36.5615C68.4274 36.0419 70.0015 36.0347 71.4451 36.5412C72.8886 37.0477 74.1132 38.0368 74.912 39.3415C78.1316 44.0463 81.5922 48.6036 85.1171 53.2458C86.6749 55.2973 88.2453 57.3653 89.813 59.47C91.1525 57.6961 92.4883 55.9429 93.8153 54.2012C97.5838 49.2549 101.282 44.4008 104.798 39.425C105.483 38.1283 106.62 37.1285 107.994 36.6158C109.368 36.1032 110.882 36.1136 112.248 36.645L104.492 46.9315C103.785 47.8643 103.081 48.7982 102.377 49.7319L102.372 49.7379C99.6152 53.3937 96.861 57.0456 93.9835 60.6095C93.6921 60.8702 93.459 61.1894 93.2994 61.5463C93.1398 61.9032 93.0573 62.2898 93.0573 62.6808C93.0573 63.0717 93.1398 63.4583 93.2994 63.8152C93.459 64.1721 93.6921 64.4913 93.9835 64.752C98.8178 71.1641 103.623 77.5907 108.494 84.107L108.495 84.1087C110.319 86.5481 112.152 89 114 91.4685ZM14.5715 59.1923C14.3891 60.23 14.2088 61.256 14 62.25C14.0003 63.8625 14.0096 65.4751 14.028 67.0875C14.0856 67.3508 14.1578 67.619 14.2309 67.8906C14.4048 68.5367 14.584 69.2022 14.584 69.8675C15.0488 75.8267 17.4507 81.4701 21.423 85.9365C25.4382 89.713 30.5448 92.1232 36.0125 92.8222C41.4801 93.5212 47.0288 92.4734 51.865 89.8285C54.7921 88.0746 57.2835 85.6799 59.1518 82.8244C61.0201 79.9689 62.2166 76.727 62.6515 73.3425C60.0105 72.5365 58.6205 73.009 57.7585 75.789C57.101 78.5225 55.7731 81.0493 53.8947 83.1412C52.0164 85.2332 49.6467 86.8245 46.9995 87.7715C30.6805 93.2205 17.92 82.545 18.643 64.8635H63.1245C63.5135 54.9665 61.5395 46.1815 53.644 39.9815C40.1605 29.389 20.561 36.5065 15.7515 53.604C15.2334 55.4256 14.8991 57.3278 14.5715 59.1923ZM18.6985 61.0545H58.9265C58.676 48.2385 50.586 39.1475 39.7995 39.0645C27.7895 38.8975 19.199 47.7935 18.6705 60.999L18.6985 61.0545Z" fill="#F5F9FF"/>
</svg>
