<svg width="38" height="38" viewBox="0 0 38 38" fill="none" xmlns="http://www.w3.org/2000/svg">
<g clip-path="url(#clip0_165_155)">
<path d="M18.75 15.625C17.0266 15.625 15.625 17.0265 15.625 18.75C15.625 20.4734 17.0266 21.875 18.75 21.875C20.4734 21.875 21.875 20.4734 21.875 18.75C21.875 17.0265 20.4734 15.625 18.75 15.625ZM18.75 20.3125C17.8891 20.3125 17.1875 19.6109 17.1875 18.75C17.1875 17.889 17.8891 17.1875 18.75 17.1875C19.6109 17.1875 20.3125 17.889 20.3125 18.75C20.3125 19.6109 19.6109 20.3125 18.75 20.3125ZM37.5 18.75C37.5 16.0781 34.9672 13.7281 30.9188 12.164C31.7578 7.52341 31.0031 3.79998 28.5281 2.27029C27.3375 1.53435 25.8906 1.36716 24.2234 1.77966C22.5031 2.2031 20.6266 3.24841 18.7516 4.77029C16.875 3.24998 14.9984 2.2031 13.2797 1.77966C11.6109 1.36716 10.1641 1.53435 8.975 2.27029C6.49844 3.79998 5.74375 7.52341 6.58438 12.164C2.53281 13.7281 0 16.0781 0 18.75C0 21.4219 2.53281 23.7719 6.58125 25.3359C5.74219 29.9765 6.49688 33.7 8.97344 35.2297C9.73906 35.7015 10.6109 35.939 11.5781 35.939C12.1172 35.939 12.6844 35.8656 13.2797 35.7187C15 35.2953 16.8766 34.25 18.7516 32.7281C20.6266 34.2484 22.5031 35.2937 24.2234 35.7187C24.8188 35.8656 25.3859 35.939 25.9234 35.939C26.8922 35.939 27.7641 35.7015 28.5281 35.2297C31.0031 33.7 31.7594 29.9765 30.9203 25.3359C34.9688 23.7719 37.5 21.4219 37.5 18.75ZM24.5969 3.29685C25.0641 3.18123 25.5031 3.12498 25.9141 3.12498C26.5953 3.12498 27.1953 3.28435 27.7078 3.59998C29.5641 4.74685 30.0828 7.79529 29.4172 11.6422C27.825 11.1453 26.0484 10.7594 24.1375 10.5047C22.8078 8.7156 21.3844 7.12498 19.9406 5.79841C21.5516 4.52654 23.1438 3.65623 24.5984 3.29685H24.5969ZM25.1188 22.6984C24.5359 23.6828 23.9203 24.6265 23.2813 25.5219C21.8313 25.6906 20.3109 25.7812 18.75 25.7812C17.1891 25.7812 15.6688 25.6906 14.2188 25.5219C13.5797 24.6265 12.9656 23.6828 12.3813 22.6984C11.6031 21.3859 10.9203 20.0594 10.3359 18.7484C10.9219 17.4375 11.6047 16.1109 12.3813 14.7984C12.9641 13.814 13.5797 12.8703 14.2172 11.9765C15.6672 11.8078 17.1875 11.7172 18.7484 11.7172C20.3094 11.7172 21.8297 11.8078 23.2797 11.9765C23.9172 12.8703 24.5328 13.814 25.1156 14.7984C25.8938 16.1109 26.5766 17.4375 27.1609 18.7484C26.575 20.0594 25.8922 21.3844 25.1156 22.6969L25.1188 22.6984ZM27.9734 20.7125C28.4406 21.9515 28.8156 23.1625 29.0953 24.3187C27.9563 24.6765 26.7109 24.9797 25.3859 25.214C25.7563 24.6547 26.1156 24.0812 26.4625 23.4953C27.0125 22.5672 27.5156 21.6375 27.9734 20.7125ZM18.75 30.6937C17.6516 29.6969 16.5563 28.5281 15.5047 27.2203C16.5563 27.3015 17.6406 27.3437 18.75 27.3437C19.8594 27.3437 20.9438 27.3015 21.9953 27.2203C20.9438 28.5281 19.8484 29.6984 18.75 30.6937ZM12.1141 25.214C10.7875 24.9797 9.54219 24.6765 8.40469 24.3187C8.68438 23.1625 9.05938 21.9515 9.52656 20.7125C9.98438 21.6359 10.4875 22.5656 11.0375 23.4953C11.3859 24.0828 11.7453 24.6562 12.1141 25.214ZM9.52656 16.7859C9.05938 15.5469 8.68438 14.3359 8.40469 13.1797C9.54219 12.8219 10.7875 12.5187 12.1141 12.2844C11.7453 12.8422 11.3859 13.4156 11.0375 14.0031C10.4875 14.9328 9.98438 15.8625 9.52656 16.7859ZM18.75 6.80467C19.8484 7.80154 20.9438 8.97029 21.9953 10.2781C20.9438 10.1969 19.8594 10.1547 18.75 10.1547C17.6406 10.1547 16.5563 10.1969 15.5047 10.2781C16.5563 8.97029 17.6516 7.79998 18.75 6.80467ZM26.4625 14.0031C26.1156 13.4156 25.7547 12.8422 25.3859 12.2844C26.7125 12.5187 27.9563 12.8219 29.0953 13.1797C28.8156 14.3359 28.4406 15.5469 27.9734 16.7859C27.5156 15.8625 27.0125 14.9328 26.4625 14.0031ZM9.79375 3.59841C10.3063 3.28279 10.9063 3.12341 11.5875 3.12341C11.9969 3.12341 12.4375 3.18123 12.9047 3.29529C14.3594 3.6531 15.9516 4.52498 17.5625 5.79685C16.1188 7.12185 14.6953 8.71404 13.3656 10.5031C11.4547 10.7562 9.67813 11.1437 8.08594 11.6406C7.41875 7.79373 7.93594 4.74685 9.79375 3.59841ZM1.5625 18.75C1.5625 16.7937 3.63438 14.9953 6.91094 13.7062C7.30625 15.3172 7.87656 17.014 8.62031 18.75C7.87656 20.4875 7.30625 22.1844 6.91094 23.7937C3.63594 22.5047 1.5625 20.7047 1.5625 18.75ZM12.9047 34.2031C11.6625 34.5109 10.6141 34.4094 9.79375 33.9015C7.9375 32.7547 7.41719 29.7078 8.08438 25.8609C9.67656 26.3578 11.4531 26.7437 13.3641 26.9984C14.6938 28.7875 16.1172 30.3781 17.5609 31.7047C15.95 32.9765 14.3594 33.8469 12.9047 34.2047V34.2031ZM27.7078 33.9015C26.8875 34.4109 25.8422 34.514 24.5969 34.2031C23.1422 33.8453 21.55 32.975 19.9406 31.7031C21.3844 30.3781 22.8078 28.7859 24.1375 26.9969C26.0484 26.7437 27.825 26.3562 29.4172 25.8594C30.0844 29.7062 29.5656 32.7531 27.7078 33.9V33.9015ZM30.5906 23.7953C30.1953 22.1844 29.625 20.4875 28.8813 18.7515C29.625 17.0156 30.1953 15.3187 30.5906 13.7078C33.8672 14.9969 35.9391 16.7969 35.9391 18.7515C35.9391 20.7062 33.8672 22.5062 30.5906 23.7953Z" fill="#F5F9FF"/>
</g>
<defs>
<clipPath id="clip0_165_155">
<rect width="37.5" height="37.5" fill="white"/>
</clipPath>
</defs>
</svg>
