<svg width="33" height="38" viewBox="0 0 33 38" fill="none" xmlns="http://www.w3.org/2000/svg">
<g clip-path="url(#clip0_165_149)">
<path d="M16.5173 0L0 9.375V28.125L16.5549 37.5L32.9971 28.1619V9.33812L16.5173 0ZM3.65587 26.2552V11.4719L16.5109 4.0347L29.4163 11.274V26.1363L16.5593 33.6154L3.65587 26.2552ZM10.2493 22.5875V27.8517L5.58368 25.345V19.9178L10.2493 22.5875ZM11.0921 14.4641L15.2109 12.1017L10.5453 9.3945L6.39796 11.8072L11.0921 14.4641ZM16.6642 12.8287L12.4915 15.2561L16.7386 17.6599L20.8766 15.2731L16.6642 12.8287ZM15.883 19.0598L11.7026 16.6938V21.5848L15.883 23.8309V19.0598ZM22.0213 14.6129L26.6005 11.9716L22.3752 9.51984L17.786 12.1896L22.0213 14.6129ZM20.922 8.7929L16.2563 6.08553L11.6671 8.75526L16.3328 11.425L20.922 8.7929ZM5.58368 13.2305V18.1505L10.2493 20.6573V15.8712L5.58368 13.2305ZM22.6974 22.7771V28.0574L27.4134 25.3073V19.9343L22.6974 22.7771ZM22.6974 16.1159V20.8562L27.4134 18.113V13.3958L22.6974 16.1159ZM17.5219 19.1011V23.8538L21.7023 21.4218V16.6899L17.5219 19.1011ZM17.5219 25.6799V31.0482L21.7023 28.6163V23.3897L17.5219 25.6799ZM15.883 25.6645L11.7026 23.3521V28.7793L15.883 31.0253V25.6645Z" fill="#F5F9FF"/>
</g>
<defs>
<clipPath id="clip0_165_149">
<rect width="33" height="37.5" fill="white"/>
</clipPath>
</defs>
</svg>
