<svg width="126" height="29" viewBox="0 0 126 29" fill="none" xmlns="http://www.w3.org/2000/svg">
<path d="M39 28.0535V0.550342H40.493V4.8769C40.6693 4.68524 40.8322 4.48163 40.9805 4.26753C41.5905 3.00116 42.5489 1.93494 43.7433 1.19383C44.9377 0.452721 46.3187 0.0674411 47.7242 0.0831516C51.1266 -0.0184109 53.8891 1.24097 55.5141 4.26753C56.548 6.14768 57.117 8.24796 57.1736 10.3929C57.2301 12.5379 56.7725 14.6652 55.8391 16.5972C54.3258 19.9894 50.5883 21.6753 46.5867 21.0558C45.3415 20.9497 44.1426 20.5336 43.0995 19.8452C42.0563 19.1569 41.2021 18.2184 40.6148 17.1152V28.0535H39ZM40.493 10.28C40.625 11.6207 40.6758 12.5753 40.8281 13.5097C41.4172 17.1863 43.5906 19.3699 47.0031 19.766C48.6054 20.0294 50.2495 19.7289 51.6552 18.9159C53.0608 18.1029 54.141 16.8276 54.7117 15.3074C55.3675 13.7437 55.6831 12.0584 55.6376 10.3633C55.592 8.66831 55.1864 7.00236 54.4477 5.47612C53.8385 4.11355 52.8025 2.9862 51.4962 2.26431C50.1898 1.54243 48.684 1.26523 47.2062 1.47456C45.8188 1.57509 44.4971 2.10544 43.425 2.99188C42.3529 3.87832 41.5837 5.07679 41.2242 6.42065C40.9061 7.69191 40.662 8.98052 40.493 10.28ZM87.6281 14.0175C87.4019 15.9539 86.4801 17.7423 85.0342 19.05C83.5882 20.3577 81.7165 21.0958 79.7672 21.1269C73.5109 21.4417 70.5758 17.2878 70.1086 12.4941C69.7843 9.89083 70.207 7.24903 71.3273 4.8769C72.1075 3.24977 73.3853 1.91312 74.9756 1.06043C76.566 0.20774 78.3864 -0.116747 80.1734 0.133936C81.8724 0.277928 83.4829 0.952731 84.7771 2.06279C86.0712 3.17285 86.9834 4.6619 87.3844 6.31909C87.7022 7.8284 87.9362 9.35418 88.0852 10.8894H71.6422C71.3375 15.2363 73.6734 18.73 76.9844 19.573C81.1078 20.5886 84.632 18.8011 85.9117 14.8808C86.1961 13.8753 86.7141 13.7332 87.6281 14.0175ZM71.6422 9.498H86.3383C86.2469 4.86675 83.3625 1.51518 79.4523 1.4644C75.0242 1.39331 71.8352 4.623 71.6422 9.498ZM90.6547 14.1191H92.0969C92.1502 15.1803 92.495 16.2063 93.0934 17.0842C93.6919 17.9622 94.5208 18.6582 95.4891 19.0957C96.705 19.6428 98.0286 19.9087 99.3615 19.8736C100.694 19.8384 102.002 19.5031 103.188 18.8925C103.833 18.6013 104.375 18.119 104.738 17.5106C105.101 16.9022 105.269 16.197 105.219 15.4902C105.256 14.8085 105.07 14.1333 104.689 13.567C104.307 13.0006 103.752 12.574 103.106 12.3519C101.522 11.7628 99.8359 11.4378 98.2211 10.9199C96.5409 10.4414 94.898 9.84057 93.3055 9.12222C90.7055 7.85268 90.543 2.90659 93.4883 1.34253C94.9964 0.491472 96.6937 0.0316566 98.4252 0.0050457C100.157 -0.0215652 101.867 0.385874 103.401 1.19018C104.33 1.70361 105.08 2.48803 105.552 3.43885C106.024 4.38967 106.194 5.46172 106.041 6.51206H104.802C104.802 6.45112 104.691 6.40034 104.691 6.3394C104.538 2.38862 101.227 1.16987 97.6727 1.51518C96.6115 1.64608 95.5808 1.95872 94.6258 2.4394C94.052 2.7018 93.5739 3.13584 93.2573 3.68161C92.9408 4.22738 92.8014 4.85795 92.8586 5.48628C92.8604 6.11489 93.0565 6.72757 93.4202 7.24033C93.7838 7.75308 94.2972 8.1408 94.8898 8.35034C96.4539 8.91909 98.0891 9.28471 99.6938 9.73159C100.984 10.0871 102.324 10.3207 103.573 10.7472C104.455 11.0362 105.228 11.5862 105.791 12.3244C106.353 13.0625 106.678 13.954 106.722 14.8808C106.873 15.8963 106.7 16.9335 106.227 17.845C105.755 18.7566 105.008 19.4962 104.091 19.9589C100.699 21.8785 95.1133 21.3707 92.625 18.9433C91.9944 18.3091 91.4956 17.5562 91.1574 16.7282C90.8192 15.9002 90.6484 15.0135 90.6547 14.1191ZM125.003 6.51206H123.652C123.652 6.32925 123.581 6.16675 123.561 6.0144C123.539 5.00188 123.17 4.02763 122.515 3.25479C121.861 2.48194 120.961 1.95743 119.966 1.76909C118.088 1.23038 116.085 1.32678 114.268 2.04331C113.55 2.24926 112.917 2.68198 112.465 3.27687C112.013 3.87176 111.765 4.59692 111.759 5.34409C111.734 6.07788 111.963 6.7979 112.407 7.3826C112.851 7.96731 113.483 8.38087 114.197 8.55346C116.228 9.18315 118.31 9.56909 120.372 10.1378C121.04 10.2982 121.698 10.4983 122.342 10.7371C123.304 11.0813 124.14 11.7077 124.74 12.5344C125.341 13.3612 125.678 14.3498 125.708 15.3712C125.737 16.3925 125.458 17.399 124.907 18.2592C124.355 19.1194 123.557 19.7932 122.616 20.1925C121.183 20.8434 119.63 21.1877 118.056 21.2034C116.482 21.2191 114.922 20.906 113.476 20.2839C112.287 19.7711 111.283 18.9063 110.601 17.8059C109.918 16.7055 109.589 15.4224 109.657 14.1292H110.977C111.222 15.3077 111.749 16.4088 112.515 17.3372C113.281 18.2657 114.261 18.9935 115.372 19.4577C116.482 19.9218 117.689 20.1083 118.887 20.001C120.086 19.8937 121.241 19.4958 122.251 18.8417C122.866 18.522 123.377 18.0325 123.723 17.4313C124.068 16.83 124.234 16.1423 124.201 15.4496C124.231 14.7675 124.039 14.094 123.652 13.5313C123.265 12.9687 122.706 12.5474 122.058 12.3316C120.473 11.7425 118.788 11.4277 117.173 10.9097C115.483 10.4386 113.83 9.84459 112.227 9.13237C109.688 7.88315 109.484 2.97768 112.379 1.41362C113.906 0.52691 115.636 0.050585 117.402 0.0310074C119.167 0.0114298 120.908 0.449266 122.454 1.3019C123.338 1.82976 124.05 2.60328 124.502 3.5283C124.955 4.45333 125.129 5.48997 125.003 6.51206ZM36.532 20.6292C36.0003 20.8306 35.4132 20.8302 34.8817 20.6281C34.3503 20.426 33.9112 20.0362 33.6477 19.5324C31.9922 17.0542 30.1641 14.6878 28.407 12.2707L27.6453 11.255C25.5531 14.0582 23.4609 16.7496 21.5516 19.5425C21.3028 20.024 20.8875 20.3987 20.383 20.5967C19.8785 20.7948 19.3193 20.8027 18.8094 20.6191L26.6602 10.0871L19.3578 0.570651C19.8835 0.380851 20.4585 0.378249 20.9858 0.563282C21.5132 0.748315 21.9605 1.10965 22.2523 1.58628C23.9484 4.0644 25.8273 6.43081 27.6961 8.9394C29.575 6.45112 31.4336 4.07456 33.1703 1.61675C33.4205 1.14307 33.836 0.777867 34.3378 0.590604C34.8397 0.40334 35.3929 0.407084 35.8922 0.601123L33.0586 4.35894C31.7891 6.03472 30.5398 7.72065 29.2195 9.35581C29.1131 9.45107 29.028 9.56769 28.9698 9.69807C28.9115 9.82845 28.8814 9.96964 28.8814 10.1124C28.8814 10.2553 28.9115 10.3965 28.9698 10.5268C29.028 10.6572 29.1131 10.7738 29.2195 10.8691C31.6469 14.0886 34.0539 17.3183 36.532 20.6292ZM69.8648 0.46909V1.89097C68.8376 1.82359 67.8077 1.97235 66.8415 2.32765C65.8754 2.68295 64.9944 3.23688 64.2556 3.9537C63.5168 4.67052 62.9365 5.5343 62.5521 6.48928C62.1678 7.44426 61.9879 8.46921 62.0242 9.498V20.6699H60.5719V0.550342H61.9937V4.67378C63.7508 1.66753 66.4625 0.55034 69.8648 0.46909ZM0 9.95503C0.213281 8.9394 0.345312 7.83237 0.639844 6.79643C2.39687 0.55034 9.55703 -2.04966 14.4828 1.81987C17.3672 4.08472 18.0883 7.29409 17.9461 10.9097H1.69609C1.43203 17.3691 6.09375 21.2691 12.0555 19.2785C13.0225 18.9325 13.8883 18.3512 14.5745 17.587C15.2607 16.8228 15.7457 15.8997 15.9859 14.9011C16.3008 13.8855 16.8086 13.7128 17.7734 14.0074C17.6145 15.2438 17.1773 16.4281 16.4948 17.4713C15.8123 18.5144 14.9021 19.3893 13.8328 20.03C12.066 20.9962 10.039 21.3789 8.04156 21.1236C6.04412 20.8682 4.17859 19.9877 2.71172 18.6082C1.26055 16.9765 0.383098 14.9148 0.213281 12.7378C0.213281 12.3925 0.08125 12.0472 0.0101562 11.7222C0.00338541 11.1196 0 10.5305 0 9.95503ZM1.71641 9.51831H16.4125C16.3211 4.83628 13.3656 1.51518 9.425 1.48472C5.0375 1.42378 1.89922 4.67378 1.70625 9.498L1.71641 9.51831Z" fill="#F5F9FF"/>
</svg>
