<svg width="33" height="38" viewBox="0 0 33 38" fill="none" xmlns="http://www.w3.org/2000/svg">
<path d="M16.4799 37.2405L3.23691 33.557L0.273233 0.25H32.7267L29.7601 33.5517L16.4799 37.2405Z" stroke="#F5F9FF" stroke-width="0.5"/>
<path d="M16.5 15.278H11.0331L10.656 11.0386H16.5V6.89911H6.14087L6.23945 8.00993L7.25508 19.4171H16.5V15.278ZM16.5 26.0281L16.4817 26.033L11.8811 24.7878L11.5869 21.4868H7.43954L8.0183 27.9864L16.481 30.3404L16.5 30.3348V26.0281Z" fill="#F5F9FF"/>
<path d="M16.4858 15.278V19.4171H21.573L21.0935 24.7856L16.4858 26.0319V30.3382L24.9552 27.9864L25.0172 27.2867L25.988 16.3892L26.0888 15.278H24.9754H16.4858ZM16.4858 6.89911V11.0386H26.4648L26.5474 10.1081L26.7359 8.00993L26.8349 6.89911H16.4858Z" fill="#F5F9FF"/>
</svg>
