<svg width="44" height="45" viewBox="0 0 44 45" fill="none" xmlns="http://www.w3.org/2000/svg">
<path d="M37.3505 38.3676H30.9746V28.157C30.9746 25.722 30.9322 22.5888 27.6583 22.5888C24.3379 22.5888 23.829 25.2407 23.829 27.9814V38.3676H17.4552V17.3697H23.5767V20.2384H23.6615C24.9104 18.057 27.23 16.7539 29.7003 16.8471C36.1631 16.8471 37.3526 21.1946 37.3526 26.8474L37.3505 38.3676ZM10.2608 14.4988C8.21677 14.4988 6.56077 12.8054 6.56077 10.7151C6.56077 8.62486 8.21677 6.9314 10.2608 6.9314C12.3048 6.9314 13.9608 8.62486 13.9608 10.7151C13.9608 12.8054 12.3048 14.4988 10.2608 14.4988ZM13.4477 38.3676H7.06542V17.3697H13.4477V38.3676ZM40.5289 0.877464H3.86156C2.12922 0.85795 0.708582 2.2782 0.687378 4.04971V41.7003C0.708582 43.474 2.12922 44.8943 3.86156 44.8747H40.5289C42.2655 44.8964 43.6925 43.4762 43.7158 41.7003V4.04754C43.6904 2.27169 42.2634 0.851445 40.5289 0.875296" fill="#A7DB43"/>
</svg>
