<svg width="44" height="45" viewBox="0 0 44 45" fill="none" xmlns="http://www.w3.org/2000/svg">
<g clip-path="url(#clip0_165_97)">
<path fill-rule="evenodd" clip-rule="evenodd" d="M5.70902 2.2809C6.17519 1.80044 6.73496 1.42773 7.35124 1.18747C7.96751 0.947208 8.62622 0.844877 9.28371 0.887261C9.9412 0.929645 10.5824 1.11577 11.165 1.43332C11.7475 1.75086 12.258 2.19256 12.6626 2.72915L17.4449 9.07065C18.3214 10.2339 18.6305 11.7491 18.2841 13.1791L16.8268 19.2016C16.752 19.5136 16.7563 19.8402 16.8394 20.1499C16.9225 20.4597 17.0814 20.7421 17.301 20.9699L23.847 27.7266C24.068 27.9538 24.3421 28.1182 24.6426 28.2039C24.9432 28.2897 25.2602 28.2939 25.5628 28.2161L31.3948 26.7119C32.0785 26.5365 32.7919 26.5233 33.4813 26.6733C34.1707 26.8234 34.8182 27.1327 35.3751 27.5781L41.5188 32.5116C43.7274 34.2854 43.9299 37.6541 41.9531 39.6919L39.1982 42.5354C37.2267 44.5704 34.2801 45.4641 31.5333 44.4659C24.5015 41.9155 18.1177 37.7607 12.8571 32.3109C7.57763 26.8817 3.55247 20.2933 1.08127 13.0361C0.116827 10.2036 0.982698 7.1594 2.95422 5.1244L5.70902 2.2809Z" fill="#A7DB43"/>
</g>
<defs>
<clipPath id="clip0_165_97">
<rect width="42.6275" height="44" fill="white" transform="translate(0.687378 0.875)"/>
</clipPath>
</defs>
</svg>
