<svg width="41" height="55" viewBox="0 0 41 55" fill="none" xmlns="http://www.w3.org/2000/svg">
<path d="M20.4999 54.6667C20.4999 54.6667 40.9999 35.2395 40.9999 20.5C40.9999 15.0631 38.8401 9.84881 34.9956 6.00431C31.1511 2.15982 25.9369 0 20.4999 0C15.063 0 9.84875 2.15982 6.00425 6.00431C2.15975 9.84881 -6.09541e-05 15.0631 -6.10352e-05 20.5C-6.10352e-05 35.2395 20.4999 54.6667 20.4999 54.6667ZM20.4999 30.75C17.7815 30.75 15.1743 29.6701 13.2521 27.7478C11.3298 25.8256 10.2499 23.2185 10.2499 20.5C10.2499 17.7815 11.3298 15.1744 13.2521 13.2522C15.1743 11.3299 17.7815 10.25 20.4999 10.25C23.2184 10.25 25.8255 11.3299 27.7478 13.2522C29.67 15.1744 30.7499 17.7815 30.7499 20.5C30.7499 23.2185 29.67 25.8256 27.7478 27.7478C25.8255 29.6701 23.2184 30.75 20.4999 30.75Z" fill="#A7DB43"/>
</svg>
