<svg width="26" height="26" viewBox="0 0 26 26" fill="none" xmlns="http://www.w3.org/2000/svg">
<path fill-rule="evenodd" clip-rule="evenodd" d="M6.62787 3.80718C6.62787 2.99164 6.95438 2.2095 7.53557 1.63282C8.11675 1.05615 8.90501 0.732178 9.72694 0.732178L22.1232 0.732178C22.9451 0.732178 23.7334 1.05615 24.3146 1.63282C24.8957 2.2095 25.2222 2.99164 25.2222 3.80718V16.1072C25.2222 16.9227 24.8957 17.7049 24.3146 18.2815C23.7334 18.8582 22.9451 19.1822 22.1232 19.1822H9.72694C8.90501 19.1822 8.11675 18.8582 7.53557 18.2815C6.95438 17.7049 6.62787 16.9227 6.62787 16.1072V3.80718ZM9.72694 2.26968C9.31597 2.26968 8.92184 2.43166 8.63125 2.72C8.34066 3.00834 8.1774 3.39941 8.1774 3.80718V16.1072C8.1774 16.5149 8.34066 16.906 8.63125 17.1944C8.92184 17.4827 9.31597 17.6447 9.72694 17.6447H22.1232C22.5341 17.6447 22.9283 17.4827 23.2189 17.1944C23.5095 16.906 23.6727 16.5149 23.6727 16.1072V3.80718C23.6727 3.39941 23.5095 3.00834 23.2189 2.72C22.9283 2.43166 22.5341 2.26968 22.1232 2.26968H9.72694ZM3.52881 8.41968C3.11785 8.41968 2.72372 8.58167 2.43313 8.87C2.14253 9.15834 1.97928 9.54941 1.97928 9.95718V22.2572C1.97928 22.6649 2.14253 23.056 2.43313 23.3444C2.72372 23.6327 3.11785 23.7947 3.52881 23.7947H15.9251C16.336 23.7947 16.7302 23.6327 17.0207 23.3444C17.3113 23.056 17.4746 22.6649 17.4746 22.2572V20.7197H19.0241V22.2572C19.0241 23.0727 18.6976 23.8549 18.1164 24.4315C17.5352 25.0082 16.747 25.3322 15.9251 25.3322H3.52881C2.70689 25.3322 1.91863 25.0082 1.33744 24.4315C0.756256 23.8549 0.429749 23.0727 0.429749 22.2572V9.95718C0.429749 9.14164 0.756256 8.3595 1.33744 7.78282C1.91863 7.20615 2.70689 6.88218 3.52881 6.88218H5.07834V8.41968H3.52881Z" fill="#F5F9FF"/>
</svg>
