<svg width="40" height="86" viewBox="0 0 40 86" fill="none" xmlns="http://www.w3.org/2000/svg">
<path d="M18.2321 84.7677C19.2083 85.744 20.7912 85.7441 21.7676 84.7679L37.6785 68.8589C38.6548 67.8827 38.6549 66.2998 37.6787 65.3234C36.7024 64.347 35.1195 64.3469 34.1432 65.3232L20.0002 79.4645L5.85888 65.3215C4.88263 64.3451 3.29972 64.345 2.32335 65.3213C1.34698 66.2975 1.34688 67.8804 2.32313 68.8568L18.2321 84.7677ZM17.5 81.9998L17.4999 82.9998L22.4999 83.0002L22.5 82.0002L17.5 81.9998Z" fill="#7743DB"/>
<rect x="1" y="1" width="38" height="58" rx="19" stroke="#7743DB" stroke-width="2"/>
<rect x="16" y="12" width="7" height="12" rx="3.5" stroke="#7743DB" stroke-width="2"/>
</svg>
